<svg width="25" height="25" viewBox="0 0 50 50" fill="none" xmlns="http://www.w3.org/2000/svg">
<path fill-rule="evenodd" clip-rule="evenodd" d="M35.3436 22.2792L33.1832 20.1187L31.0228 22.2792L33.1832 24.4396L31.7103 25.9125L29.5499 23.7521L27.3895 25.9125L29.5499 28.0708L28.077 29.5437L25.9124 27.3833L23.752 29.5437L25.9124 31.7021L24.4395 33.175L22.279 31.0167L20.1186 33.1771L22.279 35.3354L20.8061 36.8083L13.5353 29.5437L15.0103 28.0708L17.1707 30.2312L19.3332 28.0708L17.1707 25.9125L18.6457 24.4396L20.8061 26.5979L22.9665 24.4396L20.8061 22.2792L22.279 20.8062L24.4395 22.9667L26.5999 20.8062L24.4395 18.6479L25.9124 17.175L28.077 19.3333L30.2374 17.175L28.077 15.0146L29.5499 13.5417L36.8165 20.8062L35.3436 22.2792ZM19.5499 4.53333C16.4457 6.26667 13.5228 8.44583 10.9811 10.9875C8.34779 13.6187 6.20612 16.5396 4.52279 19.5562C5.4582 30.1208 18.4707 43.3292 30.2853 45.9437C33.4436 44.325 36.5603 42.1729 39.3728 39.3604C42.0686 36.6687 44.2582 33.5667 45.9478 30.2917C43.3582 18.4875 30.1207 5.45417 19.5499 4.53333ZM1.75404 25.7792C0.601953 29.1792 0.00195312 32.5583 0.00195312 35.6729C0.00195312 40.2937 1.28945 44.2062 3.7082 46.6271C5.88529 48.8 9.67904 50 14.3936 50C17.2582 50 20.6853 49.5104 24.2707 48.3979C14.4582 44.2438 5.22487 34.9958 1.75404 25.7792ZM25.8124 1.74375C29.1207 0.614583 32.4832 0 35.702 0C40.3561 0 44.2415 1.32083 46.6436 3.725C48.8249 5.90208 49.9999 9.7875 49.9999 14.4229C49.9999 17.6146 49.4624 20.9771 48.4207 24.3021C44.2749 14.4771 35.027 5.23333 25.8124 1.74375Z" fill="white"/>
</svg>
