<svg width="25" height="25" viewBox="0 0 41 41" fill="none" xmlns="http://www.w3.org/2000/svg">
<path d="M33.4375 0.257751C24.1696 0.856695 16.1934 4.27501 10.2333 10.235C4.2573 16.2108 0.825641 24.3386 0.251953 33.6136C0.389617 33.6257 0.524141 33.6817 0.629352 33.7868L7.0306 40.1882C7.18672 40.3443 7.2384 40.5636 7.18986 40.7635C16.6175 40.235 24.7289 36.8085 30.7678 30.7697C36.6298 24.9077 40.0446 16.9774 40.7147 7.92585L33.6025 0.813511C33.4516 0.66263 33.3971 0.452339 33.4375 0.257751ZM34.4649 5.43808C34.703 5.67612 34.703 6.06241 34.4649 6.30045L32.1526 8.61273L34.4649 10.925C34.703 11.1631 34.703 11.5493 34.4649 11.7874C34.3459 11.9065 34.1897 11.966 34.0338 11.966C33.8778 11.966 33.7216 11.9065 33.6026 11.7874L31.2904 9.4751L28.4947 12.2706L30.807 14.5829C31.0451 14.821 31.0451 15.2073 30.807 15.4453C30.688 15.5644 30.5318 15.6239 30.3758 15.6239C30.2199 15.6239 30.0637 15.5644 29.9447 15.4453L27.6324 13.133L24.8369 15.9286L27.1492 18.2408C27.3873 18.4789 27.3873 18.865 27.1492 19.1032C27.0302 19.2222 26.874 19.2817 26.718 19.2817C26.562 19.2817 26.4059 19.2222 26.2868 19.1032L23.9745 16.7908L21.1791 19.5863L23.4913 21.8986C23.7294 22.1368 23.7294 22.523 23.4913 22.7611C23.3723 22.8802 23.2161 22.9397 23.0601 22.9397C22.9041 22.9397 22.748 22.8802 22.629 22.7611L20.3168 20.4488L17.5212 23.2443L19.8335 25.5565C20.0717 25.7946 20.0717 26.1809 19.8335 26.4189C19.7144 26.538 19.5583 26.5975 19.4023 26.5975C19.2462 26.5975 19.0902 26.538 18.9711 26.4189L16.659 24.1066L13.8634 26.9023L16.1757 29.2146C16.4139 29.4526 16.4139 29.8388 16.1757 30.0768C16.0566 30.1959 15.9005 30.2554 15.7445 30.2554C15.5885 30.2554 15.4324 30.1959 15.3133 30.0768L13.0012 27.7645L10.2055 30.5602L12.5178 32.8725C12.756 33.1105 12.756 33.4967 12.5178 33.7347C12.3987 33.8538 12.2426 33.9134 12.0866 33.9134C11.9305 33.9134 11.7745 33.8538 11.6554 33.7347L9.34328 31.4224L7.03099 33.7347C6.91191 33.8538 6.75579 33.9134 6.59981 33.9134C6.44369 33.9134 6.28771 33.8538 6.16863 33.7347C5.93046 33.4967 5.93046 33.1105 6.16863 32.8725L8.48091 30.5602L6.16863 28.2478C5.93046 28.0098 5.93046 27.6236 6.16863 27.3856C6.40692 27.1474 6.79296 27.1474 7.03099 27.3856L9.34328 29.6978L12.1388 26.9023L9.82654 24.5899C9.58838 24.3518 9.58838 23.9656 9.82654 23.7275C10.0648 23.4894 10.4509 23.4895 10.6889 23.7275L13.0012 26.0399L15.7967 23.2443L13.4845 20.9321C13.2463 20.6939 13.2463 20.3078 13.4845 20.0696C13.7226 19.8316 14.1087 19.8316 14.3468 20.0696L16.659 22.3819L19.4545 19.5865L17.1422 17.2742C16.9041 17.036 16.9041 16.6499 17.1422 16.4118C17.3804 16.1738 17.7664 16.1738 18.0046 16.4118L20.3169 18.7241L23.1123 15.9286L20.8001 13.6163C20.562 13.3782 20.562 12.9919 20.8001 12.7539C21.038 12.5159 21.4245 12.5159 21.6624 12.7539L23.9747 15.0662L26.7701 12.2706L24.4579 9.95836C24.2198 9.72033 24.2198 9.33416 24.4579 9.096C24.6958 8.85796 25.0823 8.85796 25.3203 9.096L27.6326 11.4083L30.4281 8.61273L28.116 6.30045C27.8778 6.06241 27.8778 5.67612 28.116 5.43808C28.3539 5.20005 28.7403 5.20005 28.9782 5.43808L31.2905 7.75037L33.6028 5.43808C33.8405 5.20005 34.2268 5.20005 34.4649 5.43808Z" fill="white"/>
</svg>
