<svg width="25" height="25" viewBox="0 0 42 50" fill="none" xmlns="http://www.w3.org/2000/svg">
<path fill-rule="evenodd" clip-rule="evenodd" d="M2.21185 36.1271L16.266 44.2812L15.3181 45.9271C13.8723 48.4396 11.1743 50 8.27852 50C6.85768 50 5.4556 49.6229 4.22227 48.9083C1.62227 47.4021 0.166016 44.6604 0.166016 41.8458C0.166016 40.4688 0.516016 39.0729 1.24935 37.7979L2.21185 36.1271ZM18.5639 4.89167L9.58477 33.2208L22.3139 7.44583L28.5619 6.63958L30.9369 12.3375L14.9931 36.2937L35.1869 14.2292L41.6098 14.9583L41.8327 23.6625L18.3452 40.6687V40.6708L4.27018 32.5042L7.03477 3.46667L14.4577 0L18.5639 4.89167Z" fill="white"/>
</svg>
