<svg width="25" height="25" viewBox="0 0 50 50" fill="none" xmlns="http://www.w3.org/2000/svg">
<path fill-rule="evenodd" clip-rule="evenodd" d="M41.8044 6.53958C40.3398 8.59792 39.1836 10.6604 38.2711 12.7021L39.819 13.2687L39.0982 15.2292L37.4669 14.6271C37.0419 15.7354 36.6878 16.8396 36.394 17.9396L38.2128 18.3083L37.7961 20.3562L35.9336 19.9771C35.6815 21.3083 35.5253 22.6333 35.469 23.9562H37.5232V26.0438H35.4523C35.494 27.3729 35.6294 28.7042 35.869 30.0271L37.7607 29.6458L38.1815 31.6917L36.3148 32.0687C36.6023 33.1792 36.9648 34.2917 37.394 35.4021L39.0982 34.7729L39.819 36.7313L38.2023 37.3271C39.144 39.3833 40.3315 41.4437 41.769 43.4938C46.8086 38.9188 49.9982 32.3396 49.9982 25C49.9982 17.6812 46.8253 11.1125 41.8044 6.53958ZM34.2836 38.7687L31.9815 39.6146L31.2586 37.6562L33.4836 36.8375C32.9857 35.5292 32.5607 34.2146 32.2273 32.8979L29.9919 33.3521L29.5773 31.3042L31.7982 30.8542C31.5065 29.2542 31.3419 27.6521 31.2961 26.0438H29.1732V23.9562H31.3107C31.3753 22.3583 31.5586 20.7562 31.8628 19.1521L29.6128 18.6958L30.0294 16.65L32.3128 17.1125C32.6461 15.8062 33.0586 14.4979 33.5565 13.1896L31.2586 12.3479L31.9815 10.3875L34.3523 11.2604C35.4169 8.825 36.7065 6.4 38.4461 3.95208C34.5586 1.4625 29.9523 0 24.9982 0C20.0336 0 15.4169 1.46875 11.5253 3.96667C13.2773 6.41042 14.5815 8.83125 15.644 11.2604L18.0148 10.3875L18.7336 12.3479L16.4398 13.1896C16.9357 14.4979 17.3503 15.8062 17.6836 17.1125L19.9669 16.65L20.3815 18.6958L18.1315 19.1521C18.4378 20.7562 18.6232 22.3583 18.6857 23.9562H20.8211V26.0438H18.6982C18.6544 27.6521 18.4878 29.2542 18.1961 30.8542L20.4169 31.3042L20.0023 33.3521L17.7648 32.8979C17.4357 34.2146 17.0107 35.5292 16.5128 36.8375L18.7336 37.6562L18.0148 39.6146L15.7148 38.7687C14.6315 41.2021 13.3294 43.6187 11.5044 46.0208C15.4003 48.5271 20.0232 50 24.9982 50C29.9648 50 34.5878 48.5292 38.4794 46.0271C36.6732 43.6229 35.3607 41.2042 34.2836 38.7687ZM8.22734 43.4958C3.18359 38.9208 -0.00390625 32.3417 -0.00390625 25C-0.00390625 17.6708 3.17526 11.0958 8.20859 6.52083C9.66276 8.54375 10.8003 10.6375 11.7253 12.7021L10.1753 13.2687L10.8982 15.2292L12.5315 14.6271C12.9544 15.7354 13.3107 16.8396 13.6003 17.9396L11.7815 18.3083L12.1982 20.3562L14.0628 19.9771C14.3148 21.3083 14.4711 22.6333 14.5294 23.9562H12.4711V26.0438H14.544C14.5003 27.3729 14.3648 28.7042 14.1253 30.0271L12.2336 29.6458L11.8169 31.6917L13.6794 32.0687C13.394 33.1792 13.0294 34.2917 12.6044 35.4021L10.8982 34.7729L10.1753 36.7313L11.794 37.3271C10.8565 39.3771 9.70443 41.4188 8.22734 43.4958Z" fill="white"/>
</svg>
