<svg width="25" height="25" viewBox="0 0 50 50" fill="none" xmlns="http://www.w3.org/2000/svg">
<path fill-rule="evenodd" clip-rule="evenodd" d="M21.5854 0.260419C16.3687 0.977085 11.6729 3.29584 7.99583 6.71667C14.9375 7.04792 20.0229 9.88542 25.3937 10.5417C24.1062 5.9875 22.8937 2.95209 21.5854 0.260419ZM27.5229 20.8438C17.2396 21.8313 7.95625 25.1 0.464583 29.7583C1.42917 34.75 3.86875 39.2188 7.32917 42.6771C15.25 36.4896 18.0958 26 27.8562 23.5604C27.7625 22.65 27.6479 21.7458 27.5229 20.8438ZM26.4625 14.75C18.4271 14.3104 11.3583 9.64583 4.70833 10.4417C1.75625 14.5438 0 19.5646 0 25L0.0145833 25.3292C6.9875 20.6229 17.8062 17.5 26.8229 16.6125C26.7062 15.9917 26.5979 15.3667 26.4625 14.75ZM49.8708 22.4646C43.9479 20.9917 37.7167 20.3708 31.7125 20.5708C31.8271 21.4292 31.9125 22.2917 31.9979 23.1562C39.1062 23.6313 44.5021 30.6917 46.7562 37.2813C48.8104 33.65 50 29.4667 50 25C50 24.1438 49.9542 23.2979 49.8708 22.4646ZM42.4979 7.16667C38.0938 8.83125 36.3708 13.2396 30.6917 14.4771L31.025 16.3292C36.2479 16.1229 41.7771 16.4646 48.9562 17.8833C47.7333 13.7688 45.4854 10.0979 42.4979 7.16667ZM28.1375 27.7167C21.1354 29.8229 17.6021 39.8438 10.5458 45.3688C14.6312 48.275 19.6104 50 25 50L26.1542 49.9417C27.7292 42.7688 28.5125 35.7354 28.1375 27.7167ZM32.3042 27.4583C32.6562 34.9646 31.9708 42.1833 30.5208 49.3667C35.9958 48.1292 40.7958 45.1104 44.2583 40.9292C42.1646 35.1354 38.3479 28.5167 32.3042 27.4583ZM38.8896 4.22084C34.2167 7.52917 33.7604 9.50417 29.6875 10.3979C28.7625 6.91875 27.5521 3.36667 26.0625 0.0541687C30.7937 0.254169 35.1917 1.74375 38.8896 4.22084Z" fill="white"/>
</svg>
