<svg width="25" height="25" viewBox="0 0 50 50" fill="none" xmlns="http://www.w3.org/2000/svg">
<path fill-rule="evenodd" clip-rule="evenodd" d="M25 0C38.7979 0 50 11.2021 50 25C50 38.7979 38.7979 50 25 50C11.2021 50 0 38.7979 0 25C0 11.2021 11.2021 0 25 0ZM27.3125 19.4771C29.7396 19.4771 31.7083 21.6479 31.7083 24.3208C31.7083 26.9958 29.7396 29.1667 27.3125 29.1667C24.8875 29.1667 22.9167 26.9958 22.9167 24.3208C22.9167 21.6479 24.8875 19.4771 27.3125 19.4771ZM39.3563 15.4896C40.6208 17.7208 40.5542 20.1521 39.2062 20.9167C37.8583 21.6792 35.7375 20.4875 34.4729 18.2562C33.2083 16.025 33.275 13.5937 34.6229 12.8292C35.9708 12.0667 38.0917 13.2583 39.3563 15.4896ZM23.3625 8.33333C25.9083 8.33333 27.975 9.8 27.975 11.6062C27.975 13.4125 25.9083 14.8771 23.3625 14.8771C20.8167 14.8771 18.75 13.4125 18.75 11.6062C18.75 9.8 20.8167 8.33333 23.3625 8.33333Z" fill="white"/>
</svg>
