<svg width="25" height="25" viewBox="0 0 46 50" fill="none" xmlns="http://www.w3.org/2000/svg">
<path fill-rule="evenodd" clip-rule="evenodd" d="M19.6268 44.3232L5.81217 36.4337L8.71009 31.467L22.5247 39.3566L19.6268 44.3232ZM35.9184 3.32325C31.8413 0.960753 28.333 -0.145498 25.4351 0.0149192C21.0747 0.258669 17.2413 2.58367 17.8913 10.2024C17.0705 5.4795 14.1059 1.49825 10.5997 2.142C5.94551 2.99617 7.16426 9.02117 7.61009 14.0295C8.00801 18.5191 8.46009 23.6087 6.15176 27.5753L0.0830078 37.9732L21.1455 50.0003L27.2018 39.617C30.1788 34.5441 33.5663 32.0524 36.8476 29.6399C39.0726 28.0003 45.9163 23.3941 45.9163 16.7378C45.9163 11.2274 41.2268 6.40034 35.9184 3.32325Z" fill="white"/>
</svg>
