<svg width="20" height="20" viewBox="0 0 20 20" fill="none" xmlns="http://www.w3.org/2000/svg">
<path fill-rule="evenodd" clip-rule="evenodd" d="M16.7226 2.61583C16.1368 3.43917 15.6743 4.26417 15.3094 5.08083L15.9285 5.3075L15.6402 6.09167L14.9877 5.85083C14.8177 6.29417 14.6761 6.73583 14.5586 7.17583L15.286 7.32333L15.1194 8.1425L14.3744 7.99083C14.2736 8.52333 14.2111 9.05333 14.1886 9.5825H15.0102V10.4175H14.1819C14.1986 10.9492 14.2527 11.4817 14.3486 12.0108L15.1052 11.8583L15.2735 12.6767L14.5269 12.8275C14.6419 13.2717 14.7869 13.7167 14.9585 14.1608L15.6402 13.9092L15.9285 14.6925L15.2819 14.9308C15.6585 15.7533 16.1335 16.5775 16.7085 17.3975C18.7242 15.5675 20 12.9358 20 10C20 7.0725 18.7309 4.445 16.7226 2.61583ZM13.7144 15.5075L12.7936 15.8458L12.5045 15.0625L13.3944 14.735C13.1953 14.2117 13.0253 13.6858 12.892 13.1592L11.9978 13.3408L11.832 12.5217L12.7203 12.3417C12.6036 11.7017 12.5378 11.0608 12.5195 10.4175H11.6703V9.5825H12.5253C12.5511 8.94333 12.6245 8.3025 12.7461 7.66083L11.8462 7.47833L12.0128 6.66L12.9261 6.845C13.0595 6.3225 13.2244 5.79917 13.4236 5.27583L12.5045 4.93917L12.7936 4.155L13.7419 4.50417C14.1677 3.53 14.6836 2.56 15.3794 1.58083C13.8244 0.585 11.982 0 10.0004 0C8.01467 0 6.16808 0.5875 4.61147 1.58667C5.31228 2.56417 5.83392 3.5325 6.25891 4.50417L7.2072 4.155L7.49469 4.93917L6.57723 5.27583C6.77555 5.79917 6.94138 6.3225 7.07471 6.845L7.988 6.66L8.15383 7.47833L7.25387 7.66083C7.37636 8.3025 7.45052 8.94333 7.47552 9.5825H8.32965V10.4175H7.48052C7.46302 11.0608 7.39636 11.7017 7.2797 12.3417L8.16799 12.5217L8.00217 13.3408L7.1072 13.1592C6.97554 13.6858 6.80555 14.2117 6.60639 14.735L7.49469 15.0625L7.2072 15.8458L6.28724 15.5075C5.85392 16.4808 5.33311 17.4475 4.60314 18.4083C6.16141 19.4108 8.0105 20 10.0004 20C11.987 20 13.8361 19.4117 15.3927 18.4108C14.6702 17.4492 14.1452 16.4817 13.7144 15.5075ZM3.29236 17.3983C1.27495 15.5683 0 12.9367 0 10C0 7.06833 1.27161 4.43833 3.28486 2.60833C3.86651 3.4175 4.32149 4.255 4.69147 5.08083L4.0715 5.3075L4.36065 6.09167L5.01396 5.85083C5.18312 6.29417 5.32561 6.73583 5.44144 7.17583L4.71397 7.32333L4.88063 8.1425L5.62643 7.99083C5.72726 8.52333 5.78976 9.05333 5.81309 9.5825H4.98979V10.4175H5.81892C5.80142 10.9492 5.74726 11.4817 5.65143 12.0108L4.8948 11.8583L4.72814 12.6767L5.47311 12.8275C5.35894 13.2717 5.21312 13.7167 5.04312 14.1608L4.36065 13.9092L4.0715 14.6925L4.71897 14.9308C4.34399 15.7508 3.88317 16.5675 3.29236 17.3983Z" fill="#7342FF"/>
</svg>
