<svg width="20" height="20" viewBox="0 0 20 20" fill="none" xmlns="http://www.w3.org/2000/svg">
<path fill-rule="evenodd" clip-rule="evenodd" d="M8.63417 0.0825895C6.5475 0.369567 4.66917 1.29807 3.19833 2.66789C5.975 2.80053 8.00917 3.93676 10.1575 4.19955C9.6425 2.37591 9.1575 1.16042 8.63417 0.0825895ZM11.0092 8.32485C6.89583 8.72028 3.1825 10.0292 0.185833 11.8946C0.571667 13.8934 1.5475 15.6828 2.93167 17.0677C6.1 14.59 7.23833 10.3896 11.1425 9.4127C11.105 9.04813 11.0592 8.68608 11.0092 8.32485ZM10.585 5.88471C7.37083 5.70868 4.54333 3.84083 1.88333 4.15951C0.7025 5.80212 0 7.81263 0 9.98915L0.00583333 10.121C2.795 8.23642 7.1225 6.9859 10.7292 6.63052C10.6825 6.38191 10.6392 6.13164 10.585 5.88471ZM19.9483 8.97389C17.5792 8.38408 15.0867 8.13548 12.685 8.21557C12.7308 8.55927 12.765 8.90465 12.7992 9.25085C15.6425 9.44106 17.8008 12.2683 18.7025 14.907C19.5242 13.4529 20 11.7778 20 9.98915C20 9.64628 19.9817 9.30758 19.9483 8.97389ZM16.9992 2.84809C15.2375 3.51464 14.5483 5.27989 12.2767 5.77542L12.41 6.51706C14.4992 6.43447 16.7108 6.57128 19.5825 7.1394C19.0933 5.49178 18.1942 4.02186 16.9992 2.84809ZM11.255 11.077C8.45417 11.9204 7.04083 15.9331 4.21833 18.1455C5.8525 19.3093 7.84417 20 10 20L10.4617 19.9766C11.0917 17.1044 11.405 14.288 11.255 11.077ZM12.9217 10.9736C13.0625 13.9793 12.7883 16.8699 12.2083 19.7464C14.3983 19.2509 16.3183 18.042 17.7033 16.3677C16.8658 14.0477 15.3392 11.3973 12.9217 10.9736ZM15.5558 1.66847C13.6867 2.99324 13.5042 3.7841 11.875 4.14199C11.505 2.74881 11.0208 1.32644 10.425 0C12.3175 0.0800868 14.0767 0.676566 15.5558 1.66847Z" fill="#ACD927"/>
</svg>
