<svg width="20" height="20" viewBox="0 0 20 20" fill="none" xmlns="http://www.w3.org/2000/svg">
<path fill-rule="evenodd" clip-rule="evenodd" d="M10 0C15.5192 0 20 4.48083 20 10C20 15.5192 15.5192 20 10 20C4.48083 20 0 15.5192 0 10C0 4.48083 4.48083 0 10 0ZM10.925 7.79083C11.8958 7.79083 12.6833 8.65917 12.6833 9.72833C12.6833 10.7983 11.8958 11.6667 10.925 11.6667C9.955 11.6667 9.16667 10.7983 9.16667 9.72833C9.16667 8.65917 9.955 7.79083 10.925 7.79083ZM15.7425 6.19583C16.2483 7.08833 16.2217 8.06083 15.6825 8.36667C15.1433 8.67167 14.295 8.195 13.7892 7.3025C13.2833 6.41 13.31 5.4375 13.8492 5.13167C14.3883 4.82667 15.2367 5.30333 15.7425 6.19583ZM9.345 3.33333C10.3633 3.33333 11.19 3.92 11.19 4.6425C11.19 5.365 10.3633 5.95083 9.345 5.95083C8.32667 5.95083 7.5 5.365 7.5 4.6425C7.5 3.92 8.32667 3.33333 9.345 3.33333Z" fill="#FAFB12" fill-opacity="0.7"/>
</svg>
