<svg width="20" height="20" viewBox="0 0 20 20" fill="none" xmlns="http://www.w3.org/2000/svg">
<path fill-rule="evenodd" clip-rule="evenodd" d="M8.52818 17.7292L2.5 14.5734L3.76455 12.5868L9.79273 15.7426L8.52818 17.7292ZM15.6373 1.32941C13.8582 0.384424 12.3273 -0.0580701 11.0627 0.00609576C9.16 0.103594 7.48727 1.03358 7.77091 4.08104C7.41273 2.1919 6.11909 0.599421 4.58909 0.856918C2.55818 1.19858 3.09 3.60855 3.28455 5.61186C3.45818 7.40767 3.65545 9.44347 2.64818 11.0301L0 15.1892L9.19091 20L11.8336 15.8467C13.1327 13.8176 14.6109 12.8209 16.0427 11.8559C17.0136 11.2001 20 9.35764 20 6.69517C20 4.49104 17.9536 2.56023 15.6373 1.32941Z" fill="#33A1F4"/>
</svg>
