<svg width="20" height="20" viewBox="0 0 20 20" fill="none" xmlns="http://www.w3.org/2000/svg">
<path fill-rule="evenodd" clip-rule="evenodd" d="M6.78417 9.624L6.24 9.105C5.91083 8.793 5.8425 8.227 6.08417 7.814L8.14583 4.295C8.34333 3.958 8.72917 3.875 9.0125 4.109L12.5 6.993H13.75C14.0083 6.993 14.1667 7.252 14.1667 7.493C14.1667 7.769 13.98 7.993 13.75 7.993H13.1433L14.2267 10.386C14.7208 10.138 15.2633 10 15.8333 10C18.1333 10 20 12.24 20 15C20 17.76 18.1333 20 15.8333 20C13.5333 20 11.6667 17.76 11.6667 15C11.6667 13.28 12.3917 11.763 13.4942 10.862L12.1917 7.985L10.0742 7.203L9.3475 8.512L11.2533 11.46C11.4025 11.691 11.4333 11.995 11.355 12.271C11.0733 13.265 10.3542 15.7 10.0492 16.669C9.97417 16.913 9.75667 17.049 9.54583 16.985L9.52667 16.979C9.28833 16.908 9.14333 16.632 9.17667 16.342C9.30667 15.183 9.65417 12.356 9.65417 12.356L7.43833 10.247L6.87667 11.204C7.76833 12.121 8.33333 13.481 8.33333 15C8.33333 17.76 6.46667 20 4.16667 20C1.86667 20 0 17.76 0 15C0 12.24 1.86667 10 4.16667 10C4.9025 10 5.59333 10.229 6.19417 10.632L6.78417 9.624ZM5.71083 11.455C5.24917 11.164 4.72333 11 4.16667 11C2.32667 11 0.833333 12.792 0.833333 15C0.833333 17.208 2.32667 19 4.16667 19C6.00583 19 7.5 17.208 7.5 15C7.5 13.82 7.07333 12.759 6.395 12.026L4.9125 14.555C4.96833 14.688 5 14.84 5 15C5 15.552 4.62667 16 4.16667 16C3.70667 16 3.33333 15.552 3.33333 15C3.33333 14.448 3.70667 14 4.16667 14L4.2175 14.002L5.71083 11.455ZM13.895 11.747C13.05 12.473 12.5 13.66 12.5 15C12.5 17.208 13.9933 19 15.8333 19C17.6733 19 19.1667 17.208 19.1667 15C19.1667 12.792 17.6733 11 15.8333 11C15.4075 11 15.0017 11.096 14.6275 11.27L15.8633 14.001C16.3092 14.02 16.6667 14.46 16.6667 15C16.6667 15.552 16.2933 16 15.8333 16C15.3733 16 15 15.552 15 15C15 14.806 15.0467 14.623 15.1267 14.47L13.895 11.747ZM10.8975 0C11.8533 0 12.6283 0.931 12.6283 2.077C12.6283 3.224 11.8533 4.154 10.8975 4.154C9.9425 4.154 9.16667 3.224 9.16667 2.077C9.16667 0.931 9.9425 0 10.8975 0Z" fill="#FF8F04"/>
</svg>
