<svg width="20" height="20" viewBox="0 0 20 20" fill="none" xmlns="http://www.w3.org/2000/svg">
<path fill-rule="evenodd" clip-rule="evenodd" d="M14.5183 16.995C14.3708 16.6492 14.3358 16.4133 14.2775 16.0633C14.7983 15.4825 15.2683 14.87 15.6875 14.2267C16.1708 14.0633 16.7467 13.8617 17.5883 13.43C16.9258 14.8933 15.855 16.1292 14.5183 16.995ZM7.70083 18.005C8.56667 17.54 9.27583 17.0108 10.06 16.4225C10.9033 16.6333 11.7925 16.7517 12.7217 16.7917L12.7225 16.7975C12.7917 17.16 12.8933 17.4667 13.0242 17.7583C11.3683 18.4058 9.53917 18.5333 7.70083 18.005ZM1.6675 9.98917L2.72833 11.0033C2.56667 11.9 2.52167 12.7275 2.53333 13.6817C1.98417 12.57 1.66667 11.3233 1.66667 10L1.6675 9.98917ZM11.1433 1.75417L10.5117 3.20167C8.72917 3.66833 7.69167 4.13917 6.16667 4.9575L3.78083 4.46917C5.55417 2.47833 8.22833 1.3525 11.1433 1.75417ZM9.64 11.5617C8.7375 10.9567 8.0225 10.3417 6.75167 9.28917L7.20667 6.30917C8.41167 5.6025 9.345 5.27667 10.9375 4.76833C11.77 5.34083 12.5908 5.95833 13.3825 6.615L13.3808 6.63417C13.2658 8.08333 13.0308 9.18917 12.6767 10.38C11.68 10.8167 10.6683 11.2117 9.64 11.5617ZM5.675 17.1125C5.2125 16.83 4.78167 16.5058 4.38417 16.1425C4.17083 14.5417 4.08333 12.9008 4.38167 11.255L4.3825 11.2517L5.8125 10.6308C6.82167 11.5692 7.7675 12.3008 8.87583 13.0708L8.92833 15.175C7.82583 16.0467 6.95417 16.6233 5.675 17.1125ZM18.265 11.02C17.4317 11.6217 16.785 12.0408 15.7442 12.4225L14.2992 10.75C14.675 9.5425 14.9142 8.25 15.0208 6.81083L17.1033 5.66C18.0592 7.22 18.5042 9.04833 18.265 11.02ZM10 0C4.48083 0 0 4.48083 0 10C0 15.5192 4.48083 20 10 20C15.5192 20 20 15.5192 20 10C20 4.48083 15.5192 0 10 0Z" fill="#238990"/>
</svg>
