<svg width="16" height="20" viewBox="0 0 16 20" fill="none" xmlns="http://www.w3.org/2000/svg">
<path fill-rule="evenodd" clip-rule="evenodd" d="M9.66667 20H6.33333C6.33583 17.5367 5.4875 16.0442 4.66667 15.19C6.6125 16.185 9.425 16.1833 11.3333 15.19C10.5225 16.0583 9.675 17.5367 9.66667 20ZM8 0C12.1392 0 15.5 3.36083 15.5 7.5C15.5 11.6392 12.1392 15 8 15C3.86083 15 0.5 11.6392 0.5 7.5C0.5 3.36083 3.86083 0 8 0ZM8 1.66667C11.2192 1.66667 13.8333 4.28083 13.8333 7.5C13.8333 10.7192 11.2192 13.3333 8 13.3333C4.78083 13.3333 2.16667 10.7192 2.16667 7.5C2.16667 4.28083 4.78083 1.66667 8 1.66667ZM8 11.3858C8.46 11.3858 8.83333 11.7592 8.83333 12.2192C8.83333 12.6792 8.46 13.0525 8 13.0525C7.54 13.0525 7.16667 12.6792 7.16667 12.2192C7.16667 11.7592 7.54 11.3858 8 11.3858ZM9.94167 10.8333C10.4017 10.8333 10.775 11.2067 10.775 11.6667C10.775 12.1267 10.4017 12.5 9.94167 12.5C9.48167 12.5 9.10833 12.1267 9.10833 11.6667C9.10833 11.2067 9.48167 10.8333 9.94167 10.8333ZM6.10333 10.8333C6.56333 10.8333 6.93667 11.2067 6.93667 11.6667C6.93667 12.1267 6.56333 12.5 6.10333 12.5C5.64333 12.5 5.27 12.1267 5.27 11.6667C5.27 11.2067 5.64333 10.8333 6.10333 10.8333ZM4.48333 9.66083C4.94333 9.66083 5.31667 10.0342 5.31667 10.4942C5.31667 10.9542 4.94333 11.3275 4.48333 11.3275C4.02333 11.3275 3.65 10.9542 3.65 10.4942C3.65 10.0342 4.02333 9.66083 4.48333 9.66083ZM11.57 9.66083C12.03 9.66083 12.4033 10.0342 12.4033 10.4942C12.4033 10.9542 12.03 11.3275 11.57 11.3275C11.11 11.3275 10.7367 10.9542 10.7367 10.4942C10.7367 10.0342 11.11 9.66083 11.57 9.66083ZM8 9.40167C8.46 9.40167 8.83333 9.775 8.83333 10.235C8.83333 10.695 8.46 11.0683 8 11.0683C7.54 11.0683 7.16667 10.695 7.16667 10.235C7.16667 9.775 7.54 9.40167 8 9.40167ZM9.83417 8.65917C10.2942 8.65917 10.6675 9.0325 10.6675 9.4925C10.6675 9.9525 10.2942 10.3258 9.83417 10.3258C9.37417 10.3258 9.00083 9.9525 9.00083 9.4925C9.00083 9.0325 9.37417 8.65917 9.83417 8.65917ZM6.1975 8.65917C6.6575 8.65917 7.03083 9.0325 7.03083 9.4925C7.03083 9.9525 6.6575 10.3258 6.1975 10.3258C5.73833 10.3258 5.36417 9.9525 5.36417 9.4925C5.36417 9.0325 5.73833 8.65917 6.1975 8.65917ZM12.4825 7.925C12.9425 7.925 13.3158 8.29833 13.3158 8.75833C13.3158 9.21833 12.9425 9.59167 12.4825 9.59167C12.0233 9.59167 11.6492 9.21833 11.6492 8.75833C11.6492 8.29833 12.0233 7.925 12.4825 7.925ZM3.5425 7.925C4.0025 7.925 4.37583 8.29833 4.37583 8.75833C4.37583 9.21833 4.0025 9.59167 3.5425 9.59167C3.0825 9.59167 2.70917 9.21833 2.70917 8.75833C2.70917 8.29833 3.0825 7.925 3.5425 7.925Z" fill="#1EC331"/>
</svg>
