<svg width="20" height="20" viewBox="0 0 20 20" fill="none" xmlns="http://www.w3.org/2000/svg">
<path fill-rule="evenodd" clip-rule="evenodd" d="M19.8075 11.9658C18.8933 16.545 14.8473 20 10.0004 20C4.48102 20 0 15.5192 0 10C0 4.48083 4.48102 0 10.0004 0C12.2338 0 14.7139 0.8725 16.3323 2.31167C14.1623 1.51333 12.0505 1.58667 10.8713 1.79C7.57865 2.42083 5.26189 4.55667 4.22768 6.98333C2.18842 11.7692 5.36022 15.6058 8.8937 15.6025C11.1821 15.6025 13.1872 14.0583 14.3798 12.1008C15.2956 10.5992 16.3032 10.1108 17.0357 10.1367C18.0849 10.1733 18.7766 10.6083 19.8075 11.9658ZM20 9.84833C19.1825 9.065 18.2624 8.505 17.054 8.46333C15.4681 8.40917 13.9489 9.605 12.9572 11.2325C12.118 12.6092 10.9205 13.5617 9.6729 13.8458C6.87362 14.4833 4.1035 11.525 5.76107 7.63667C8.64536 0.869166 17.3124 3.615 18.1166 4.62167C18.7816 5.45417 19.9658 7.55083 20 9.84833Z" fill="#E25559"/>
</svg>
