<svg width="25" height="25" viewBox="0 0 50 50" fill="none" xmlns="http://www.w3.org/2000/svg">
<path fill-rule="evenodd" clip-rule="evenodd" d="M2.82917 36.5542C13.7708 22.1854 35.3563 14.1104 49.7396 21.3875C49.9125 22.5667 50 23.7729 50 25C50 38.7979 38.7979 50 25 50C15.3687 50 7.00417 44.5437 2.82917 36.5542ZM6.70625 38.8271C6.70833 38.8396 8.5125 36.7188 9.32708 35.8646L7.82292 34.4271C7.03125 35.2479 5.93125 36.5729 5.25833 37.4542L6.70625 38.8271ZM12.6 30.2L13.9104 31.8187C12.0104 33.3562 11.425 33.8917 10.7667 34.4792L9.38333 32.9208C11.0458 31.4458 11.2812 31.2687 12.6 30.2ZM1.00417 32.0354C0.35 29.8021 0 27.4417 0 25C0 11.2021 11.2021 0 25 0C35.7833 0 44.9792 6.84167 48.4854 16.4167C32.9604 10.9625 13.3542 17.4625 1.00417 32.0354ZM14.3542 28.9083L15.5125 30.6396C16.4792 29.9917 17.0771 29.5771 18.9833 28.4229L17.9062 26.6396C16.7021 27.3687 15.5187 28.1271 14.3542 28.9083ZM19.8104 25.5917L20.7292 27.4604C21.6625 27.0021 22.3833 26.6354 24.4667 25.7375L23.6396 23.825C23.6396 23.825 21.6542 24.6854 19.8104 25.5917ZM0.9 25.6125L2.22708 27.2167L5.10833 24.6333L3.8 23.0396L0.9 25.6125ZM25.6833 23.0562L26.325 25.0375C27.2125 24.7521 28.0333 24.4729 30.2667 23.8833L29.7354 21.8687C28.1854 22.2792 27.8208 22.3667 25.6833 23.0562ZM48.95 23.0917C48.6646 22.9771 45.25 21.6771 44.9604 21.5708L44.2437 23.5292L48.1917 25L48.95 23.0917ZM31.8833 21.4271L32.2021 23.4854C33.5542 23.2771 34.9125 23.1146 36.275 22.9854L36.0812 20.9104C34.4375 21.0667 34.0354 21.0937 31.8833 21.4271ZM5.51875 21.5875L6.84583 23.1917C7.575 22.5896 8.26458 22.0062 10.0813 20.6542L8.8375 18.9833C8.8375 18.9833 7.09167 20.2854 5.51875 21.5875ZM42.5083 21.0812C40.3667 20.8958 40.525 20.9062 38.2958 20.8333L38.225 22.9146C39.9625 22.9708 40.1167 22.9625 42.3271 23.1583L42.5083 21.0812ZM10.6375 17.7604L11.7312 19.5354C12.5271 19.0437 13.1792 18.6292 15.2875 17.4542L14.2729 15.6333C12.7708 16.4708 12.5792 16.5646 10.6375 17.7604ZM16.2271 14.6604L17.0646 16.5688C19.4542 15.525 18.975 15.7271 20.8708 14.9917L20.1187 13.0479C18.8083 13.5562 17.5125 14.0979 16.2271 14.6604ZM22.1771 12.3521L22.7604 14.3521C23.5625 14.1167 24.3625 13.8687 26.7396 13.2958L26.25 11.2708C24.575 11.6771 24.2396 11.7458 22.1771 12.3521ZM44.9333 11.0542L40.8917 10.5854L40.65 12.6271L44.6729 13.0875L44.9333 11.0542ZM28.3979 10.8646L28.6896 12.9271C29.7625 12.7771 30.5812 12.65 32.775 12.4542L32.5875 10.3792C32.5875 10.3792 30.4208 10.5792 28.3979 10.8646ZM38.9875 10.4187C36.8208 10.2896 36.3375 10.2917 34.7687 10.2833L34.7583 12.3667C35.7917 12.3729 36.6729 12.3687 38.8646 12.5L38.9875 10.4187Z" fill="white"/>
</svg>
