<svg width="25" height="25" viewBox="0 0 50 42" fill="none" xmlns="http://www.w3.org/2000/svg">
<path fill-rule="evenodd" clip-rule="evenodd" d="M16.9604 20.2167L15.6 19.1354C14.7771 18.4854 14.6062 17.3062 15.2104 16.4458L20.3646 9.11457C20.8583 8.41249 21.8229 8.23957 22.5312 8.72707L31.25 14.7354H34.375C35.0208 14.7354 35.4167 15.275 35.4167 15.7771C35.4167 16.3521 34.95 16.8187 34.375 16.8187H32.8583L35.5667 21.8042C36.8021 21.2875 38.1583 21 39.5833 21C45.3333 21 50 25.6667 50 31.4167C50 37.1667 45.3333 41.8333 39.5833 41.8333C33.8333 41.8333 29.1667 37.1667 29.1667 31.4167C29.1667 27.8333 30.9792 24.6729 33.7354 22.7958L30.4792 16.8021L25.1854 15.1729L23.3687 17.9L28.1333 24.0417C28.5062 24.5229 28.5833 25.1562 28.3875 25.7312C27.6833 27.8021 25.8854 32.875 25.1229 34.8937C24.9354 35.4021 24.3917 35.6854 23.8646 35.5521L23.8167 35.5396C23.2208 35.3917 22.8583 34.8167 22.9417 34.2125C23.2667 31.7979 24.1354 25.9083 24.1354 25.9083L18.5958 21.5146L17.1917 23.5083C19.4208 25.4187 20.8333 28.2521 20.8333 31.4167C20.8333 37.1667 16.1667 41.8333 10.4167 41.8333C4.66667 41.8333 0 37.1667 0 31.4167C0 25.6667 4.66667 21 10.4167 21C12.2562 21 13.9833 21.4771 15.4854 22.3167L16.9604 20.2167ZM14.2771 24.0312C13.1229 23.425 11.8083 23.0833 10.4167 23.0833C5.81667 23.0833 2.08333 26.8167 2.08333 31.4167C2.08333 36.0167 5.81667 39.75 10.4167 39.75C15.0146 39.75 18.75 36.0167 18.75 31.4167C18.75 28.9583 17.6833 26.7479 15.9875 25.2208L12.2812 30.4896C12.4208 30.7667 12.5 31.0833 12.5 31.4167C12.5 32.5667 11.5667 33.5 10.4167 33.5C9.26667 33.5 8.33333 32.5667 8.33333 31.4167C8.33333 30.2667 9.26667 29.3333 10.4167 29.3333L10.5437 29.3375L14.2771 24.0312ZM34.7375 24.6396C32.625 26.1521 31.25 28.625 31.25 31.4167C31.25 36.0167 34.9833 39.75 39.5833 39.75C44.1833 39.75 47.9167 36.0167 47.9167 31.4167C47.9167 26.8167 44.1833 23.0833 39.5833 23.0833C38.5187 23.0833 37.5042 23.2833 36.5687 23.6458L39.6583 29.3354C40.7729 29.375 41.6667 30.2917 41.6667 31.4167C41.6667 32.5667 40.7333 33.5 39.5833 33.5C38.4333 33.5 37.5 32.5667 37.5 31.4167C37.5 31.0125 37.6167 30.6312 37.8167 30.3125L34.7375 24.6396ZM27.2437 0.166656C29.6333 0.166656 31.5708 2.10624 31.5708 4.49374C31.5708 6.88332 29.6333 8.82082 27.2437 8.82082C24.8562 8.82082 22.9167 6.88332 22.9167 4.49374C22.9167 2.10624 24.8562 0.166656 27.2437 0.166656Z" fill="white"/>
</svg>
