<svg width="25" height="25" viewBox="0 0 42 42" fill="none" xmlns="http://www.w3.org/2000/svg">
<path d="M37.1253 34.1875C40.1717 30.4679 41.8355 25.8079 41.8337 21C41.8337 9.49999 32.5003 0.166656 21.0003 0.166656C9.50033 0.166656 0.166992 9.49999 0.166992 21C0.166992 32.5 9.50033 41.8333 21.0003 41.8333C23.7561 41.8346 26.4847 41.2883 29.0275 40.2261C31.5704 39.1639 33.8768 37.607 35.8128 35.6458C35.8753 35.5833 35.917 35.5208 35.9587 35.4792C36.3753 35.0625 36.7712 34.625 37.1253 34.1875ZM21.0003 37.6667C11.8128 37.6667 4.33366 30.1875 4.33366 21C4.33366 11.8125 11.8128 4.33332 21.0003 4.33332C30.1878 4.33332 37.667 11.8125 37.667 21C37.667 24.8542 36.3545 28.375 34.1462 31.2083L31.167 28.2292C32.6045 26.1875 33.4587 23.7083 33.4587 21.0208C33.4587 14.125 27.8545 8.52082 20.9587 8.52082C14.0628 8.52082 8.45866 14.125 8.45866 21.0208C8.45866 27.9167 14.0628 33.5208 20.9587 33.5208C23.667 33.5208 26.1878 32.6458 28.2295 31.1667L31.1878 34.125C28.2924 36.4277 24.6997 37.6767 21.0003 37.6667ZM25.0003 22.0625C25.3545 20.6875 25.042 19.1875 23.9795 18.1042L23.9378 18.0625C22.3337 16.4583 19.7712 16.4375 18.1462 17.9792C18.1253 18 18.0837 18.0208 18.042 18.0625C16.417 19.6875 16.417 22.3333 18.042 23.9583L18.0837 24C19.167 25.0625 20.6878 25.3958 22.0628 25.0208L25.2087 28.1667C23.9587 28.9167 22.5212 29.375 20.9587 29.375C16.3545 29.375 12.6253 25.6458 12.6253 21.0417C12.6253 16.4375 16.3545 12.7083 20.9587 12.7083C25.5628 12.7083 29.292 16.4375 29.292 21.0417C29.292 22.5625 28.8545 23.9792 28.1253 25.2083L25.0003 22.0625Z" fill="white"/>
</svg>
