<svg width="25" height="25" viewBox="0 0 38 50" fill="none" xmlns="http://www.w3.org/2000/svg">
<path fill-rule="evenodd" clip-rule="evenodd" d="M23.1667 50H14.8333C14.8396 43.8417 12.7188 40.1104 10.6667 37.975C15.5312 40.4625 22.5625 40.4583 27.3333 37.975C25.3062 40.1458 23.1875 43.8417 23.1667 50ZM19 0C29.3479 0 37.75 8.40208 37.75 18.75C37.75 29.0979 29.3479 37.5 19 37.5C8.65208 37.5 0.25 29.0979 0.25 18.75C0.25 8.40208 8.65208 0 19 0ZM19 4.16667C27.0479 4.16667 33.5833 10.7021 33.5833 18.75C33.5833 26.7979 27.0479 33.3333 19 33.3333C10.9521 33.3333 4.41667 26.7979 4.41667 18.75C4.41667 10.7021 10.9521 4.16667 19 4.16667ZM19 28.4646C20.15 28.4646 21.0833 29.3979 21.0833 30.5479C21.0833 31.6979 20.15 32.6312 19 32.6312C17.85 32.6312 16.9167 31.6979 16.9167 30.5479C16.9167 29.3979 17.85 28.4646 19 28.4646ZM23.8542 27.0833C25.0042 27.0833 25.9375 28.0167 25.9375 29.1667C25.9375 30.3167 25.0042 31.25 23.8542 31.25C22.7042 31.25 21.7708 30.3167 21.7708 29.1667C21.7708 28.0167 22.7042 27.0833 23.8542 27.0833ZM14.2583 27.0833C15.4083 27.0833 16.3417 28.0167 16.3417 29.1667C16.3417 30.3167 15.4083 31.25 14.2583 31.25C13.1083 31.25 12.175 30.3167 12.175 29.1667C12.175 28.0167 13.1083 27.0833 14.2583 27.0833ZM10.2083 24.1521C11.3583 24.1521 12.2917 25.0854 12.2917 26.2354C12.2917 27.3854 11.3583 28.3188 10.2083 28.3188C9.05833 28.3188 8.125 27.3854 8.125 26.2354C8.125 25.0854 9.05833 24.1521 10.2083 24.1521ZM27.925 24.1521C29.075 24.1521 30.0083 25.0854 30.0083 26.2354C30.0083 27.3854 29.075 28.3188 27.925 28.3188C26.775 28.3188 25.8417 27.3854 25.8417 26.2354C25.8417 25.0854 26.775 24.1521 27.925 24.1521ZM19 23.5042C20.15 23.5042 21.0833 24.4375 21.0833 25.5875C21.0833 26.7375 20.15 27.6708 19 27.6708C17.85 27.6708 16.9167 26.7375 16.9167 25.5875C16.9167 24.4375 17.85 23.5042 19 23.5042ZM23.5854 21.6479C24.7354 21.6479 25.6687 22.5812 25.6687 23.7312C25.6687 24.8812 24.7354 25.8146 23.5854 25.8146C22.4354 25.8146 21.5021 24.8812 21.5021 23.7312C21.5021 22.5812 22.4354 21.6479 23.5854 21.6479ZM14.4937 21.6479C15.6437 21.6479 16.5771 22.5812 16.5771 23.7312C16.5771 24.8812 15.6437 25.8146 14.4937 25.8146C13.3458 25.8146 12.4104 24.8812 12.4104 23.7312C12.4104 22.5812 13.3458 21.6479 14.4937 21.6479ZM30.2062 19.8125C31.3562 19.8125 32.2896 20.7458 32.2896 21.8958C32.2896 23.0458 31.3562 23.9792 30.2062 23.9792C29.0583 23.9792 28.1229 23.0458 28.1229 21.8958C28.1229 20.7458 29.0583 19.8125 30.2062 19.8125ZM7.85625 19.8125C9.00625 19.8125 9.93958 20.7458 9.93958 21.8958C9.93958 23.0458 9.00625 23.9792 7.85625 23.9792C6.70625 23.9792 5.77292 23.0458 5.77292 21.8958C5.77292 20.7458 6.70625 19.8125 7.85625 19.8125Z" fill="white"/>
</svg>
