<svg width="25" height="25" viewBox="0 0 50 24" fill="none" xmlns="http://www.w3.org/2000/svg">
<path d="M41.9007 0.793945C38.0762 0.793945 34.8646 3.45938 34.0202 7.02949C33.5962 6.9998 33.3046 6.9998 32.8805 7.02949C32.0361 3.45947 28.8244 0.793945 25 0.793945C21.1755 0.793945 17.9639 3.45938 17.1195 7.02949C16.6957 6.9998 16.4039 6.9998 15.9798 7.02949C15.1354 3.45938 11.9238 0.793945 8.09932 0.793945C3.6334 0.793945 0 4.42734 0 8.89326C0 13.537 3.93721 17.3013 8.66914 16.9704C9.51348 20.5405 12.7251 23.206 16.5496 23.206C20.3741 23.206 23.5856 20.5405 24.4301 16.9704C24.8539 17.0001 25.1457 17.0001 25.5698 16.9704C26.4142 20.5405 29.626 23.206 33.4503 23.206C37.2746 23.206 40.4863 20.5405 41.3307 16.9704C46.0584 17.3011 49.9999 13.5415 49.9999 8.89326C50 4.42734 46.3667 0.793945 41.9007 0.793945ZM8.68359 13.18C6.06426 13.5354 3.77217 11.4893 3.77217 8.89326C3.77217 6.50723 5.71338 4.56602 8.09922 4.56602C10.2402 4.56602 12.022 6.1293 12.3654 8.17412C10.551 9.27353 9.20166 11.0653 8.68359 13.18ZM16.5498 19.4338C14.4088 19.4338 12.6271 17.8705 12.2834 15.8257C14.098 14.7264 15.4473 12.9346 15.9653 10.82C16.3634 10.7659 16.7357 10.7659 17.1341 10.82C17.6521 12.9347 19.0015 14.7265 20.816 15.8259C20.4724 17.8705 18.6906 19.4338 16.5498 19.4338ZM25.5845 13.1802C25.187 13.234 24.8148 13.2341 24.4157 13.1801C23.8977 11.0654 22.5483 9.27354 20.7337 8.17422C21.0773 6.1294 22.8591 4.56621 25.0001 4.56621C27.1411 4.56621 28.9229 6.12949 29.2665 8.17432C27.4517 9.27363 26.1024 11.0654 25.5845 13.1802ZM33.4504 19.4338C31.3094 19.4338 29.5276 17.8705 29.184 15.8257C30.9986 14.7264 32.3479 12.9346 32.8659 10.8198C33.2626 10.766 33.6349 10.7656 34.0347 10.8198C34.5527 12.9344 35.902 14.7262 37.7166 15.8255C37.373 17.8705 35.5913 19.4338 33.4504 19.4338ZM41.3163 13.18C40.7982 11.0653 39.449 9.27344 37.6344 8.17432C37.978 6.12949 39.7598 4.56621 41.9008 4.56621C44.2867 4.56621 46.2278 6.50742 46.2278 8.89346C46.2278 11.4905 43.9346 13.5354 41.3163 13.18Z" fill="white"/>
</svg>
