<svg width="25" height="25" viewBox="0 0 40 40" fill="none" xmlns="http://www.w3.org/2000/svg">
<path d="M37.6865 2.31252C36.5198 1.14585 33.2073 0.291687 29.0198 0.291687C22.6031 0.291687 14.124 2.29169 8.22814 8.18752C-1.54269 17.9792 -0.626025 34.7292 2.31147 37.6875C3.47814 38.8542 6.79064 39.7084 10.9781 39.7084C17.3948 39.7084 25.874 37.7084 31.7698 31.8125C41.5406 22.0209 40.624 5.27085 37.6865 2.31252ZM11.1656 11.1667C16.6656 5.66669 24.3948 4.66669 27.8948 4.52085C23.624 6.47919 18.6031 9.62502 14.124 14.125C10.14 18.1325 6.88936 22.8074 4.51981 27.9375C4.70731 22.7709 6.33231 15.9792 11.1656 11.1667ZM28.8323 28.8334C23.3323 34.3334 15.6031 35.3334 12.1031 35.4792C16.374 33.5209 21.3948 30.375 25.874 25.875C30.374 21.375 33.5198 16.3334 35.499 12.0625C35.2906 17.2292 33.6656 24.0209 28.8323 28.8334Z" fill="white"/>
</svg>
