<svg width="25" height="25" viewBox="0 0 50 50" fill="none" xmlns="http://www.w3.org/2000/svg">
<path fill-rule="evenodd" clip-rule="evenodd" d="M25 0C38.7979 0 50 11.2021 50 25C50 38.7979 38.7979 50 25 50C11.2021 50 0 38.7979 0 25C0 11.2021 11.2021 0 25 0ZM25 10.4167C31.325 10.4167 36.4583 15.55 36.4583 21.875C36.4583 28.2 31.325 33.3333 25 33.3333C18.675 33.3333 13.5417 28.2 13.5417 21.875C13.5417 15.55 18.675 10.4167 25 10.4167ZM28.325 21.575C29.1458 20.9333 29.6667 20.0125 29.6667 18.75C29.6667 16.025 27.5833 14.5833 25 14.5833C22.4167 14.5833 20.3333 16.025 20.3333 18.75C20.3333 20.0125 20.8542 20.9333 21.675 21.575C20.4937 22.3354 19.8521 23.5583 19.8521 24.9396C19.8521 27.5042 21.6937 29.1667 25 29.1667C28.3062 29.1667 30.1479 27.5042 30.1479 24.9396C30.1479 23.5583 29.5062 22.3354 28.325 21.575ZM25 26.1625C23.8792 26.1625 23.0562 25.5417 23.0562 24.4792C23.0562 23.4167 23.8792 22.7958 25 22.7958C26.1208 22.7958 26.9437 23.4167 26.9437 24.4792C26.9437 25.5417 26.1208 26.1625 25 26.1625ZM25 17.5875C25.9021 17.5875 26.4625 18.1687 26.4625 18.95C26.4625 19.7312 25.9021 20.3125 25 20.3125C24.0979 20.3125 23.5375 19.7312 23.5375 18.95C23.5375 18.1687 24.0979 17.5875 25 17.5875Z" fill="white"/>
</svg>
