<svg width="25" height="25" viewBox="0 0 50 50" fill="none" xmlns="http://www.w3.org/2000/svg">
<path fill-rule="evenodd" clip-rule="evenodd" d="M36.2958 42.4875C35.9271 41.6229 35.8396 41.0333 35.6937 40.1583C36.9958 38.7062 38.1708 37.175 39.2188 35.5667C40.4271 35.1583 41.8667 34.6542 43.9708 33.575C42.3146 37.2333 39.6375 40.3229 36.2958 42.4875ZM19.2521 45.0125C21.4167 43.85 23.1896 42.5271 25.15 41.0563C27.2583 41.5833 29.4812 41.8792 31.8042 41.9792L31.8062 41.9937C31.9792 42.9 32.2333 43.6667 32.5604 44.3958C28.4208 46.0146 23.8479 46.3333 19.2521 45.0125ZM4.16875 24.9729L6.82083 27.5083C6.41667 29.75 6.30417 31.8187 6.33333 34.2042C4.96042 31.425 4.16667 28.3083 4.16667 25L4.16875 24.9729ZM27.8583 4.38542L26.2792 8.00417C21.8229 9.17083 19.2292 10.3479 15.4167 12.3937L9.45208 11.1729C13.8854 6.19583 20.5708 3.38125 27.8583 4.38542ZM24.1 28.9042C21.8437 27.3917 20.0562 25.8542 16.8792 23.2229L18.0167 15.7729C21.0292 14.0062 23.3625 13.1917 27.3437 11.9208C29.425 13.3521 31.4771 14.8958 33.4562 16.5375L33.4521 16.5854C33.1646 20.2083 32.5771 22.9729 31.6917 25.95C29.2 27.0417 26.6708 28.0292 24.1 28.9042ZM14.1875 42.7812C13.0312 42.075 11.9542 41.2646 10.9604 40.3563C10.4271 36.3542 10.2083 32.2521 10.9542 28.1375L10.9562 28.1292L14.5312 26.5771C17.0542 28.9229 19.4187 30.7521 22.1896 32.6771L22.3208 37.9375C19.5646 40.1167 17.3854 41.5583 14.1875 42.7812ZM45.6625 27.55C43.5792 29.0542 41.9625 30.1021 39.3604 31.0562L35.7479 26.875C36.6875 23.8562 37.2854 20.625 37.5521 17.0271L42.7583 14.15C45.1479 18.05 46.2604 22.6208 45.6625 27.55ZM25 0C11.2021 0 0 11.2021 0 25C0 38.7979 11.2021 50 25 50C38.7979 50 50 38.7979 50 25C50 11.2021 38.7979 0 25 0Z" fill="white"/>
</svg>
