<svg width="25" height="25" viewBox="0 0 50 32" fill="none" xmlns="http://www.w3.org/2000/svg">
<path d="M14.8133 21.3301C15.0898 21.6484 16.0063 22.25 17.5 22.25C18.9937 22.25 19.9109 21.6484 20.1867 21.3301C21.4383 19.8877 22.882 19.125 24.3633 19.125H25.6367C27.118 19.125 28.5625 19.8877 29.8133 21.3301C30.0898 21.6484 31.0063 22.25 32.5 22.25C33.9938 22.25 34.9109 21.6484 35.1867 21.3301C36.3477 19.9912 37.6773 19.2676 39.0453 19.166L30.2297 11.2949L31.6359 10.0391C31.9203 9.78712 32.2828 9.69533 32.6219 9.78419L40.4617 11.8867C42.4859 12.4268 44.4805 10.8154 44.9148 8.28517C45.3484 5.75392 44.0594 3.26173 42.0336 2.71876L34.1937 0.616224C31.793 -0.0263543 29.2703 0.627942 27.275 2.41115L21.0234 7.99415C20.2125 8.71583 19.5109 9.59962 18.9359 10.625L13.5742 20.1992C14.0016 20.5147 14.4195 20.876 14.8133 21.3301ZM48.75 25.375H47.5C45.4656 25.375 43.9219 24.5527 43.118 23.627C42.4227 22.8252 41.582 22.25 40.6359 22.25H39.3625C38.4164 22.25 37.5758 22.8252 36.8805 23.627C36.0781 24.5527 34.5344 25.375 32.5 25.375C30.4656 25.375 28.9219 24.5527 28.118 23.627C27.4227 22.8252 26.582 22.25 25.6359 22.25H24.3625C23.4164 22.25 22.5758 22.8252 21.8805 23.627C21.0781 24.5527 19.5344 25.375 17.5 25.375C15.4656 25.375 13.9219 24.5527 13.118 23.627C12.4227 22.8252 11.582 22.25 10.6359 22.25H9.3625C8.41641 22.25 7.57578 22.8252 6.88047 23.627C6.07812 24.5527 4.53438 25.375 2.5 25.375H1.25C0.559375 25.375 0 26.0742 0 26.9375V30.0625C0 30.9258 0.559375 31.625 1.25 31.625H2.5C5.51719 31.625 8.18125 30.4346 10 28.5156C11.8188 30.4356 14.4828 31.625 17.5 31.625C20.5172 31.625 23.1812 30.4346 25 28.5156C26.8188 30.4356 29.4828 31.625 32.5 31.625C35.5172 31.625 38.1813 30.4346 40 28.5156C41.8187 30.4356 44.4828 31.625 47.5 31.625H48.75C49.4406 31.625 50 30.9258 50 30.0625V26.9375C50 26.0742 49.4406 25.375 48.75 25.375ZM8.75 16C12.2016 16 15 12.502 15 8.18751C15 3.87306 12.2016 0.375013 8.75 0.375013C5.29844 0.375013 2.5 3.87306 2.5 8.18751C2.5 12.502 5.29844 16 8.75 16Z" fill="white"/>
</svg>
