<svg width="25" height="25" viewBox="0 0 50 50" fill="none" xmlns="http://www.w3.org/2000/svg">
<path fill-rule="evenodd" clip-rule="evenodd" d="M49.5186 29.9146C47.2332 41.3625 37.1186 50 25.002 50C11.204 50 0.00195312 38.7979 0.00195312 25C0.00195312 11.2021 11.204 0 25.002 0C30.5853 0 36.7853 2.18125 40.8311 5.77917C35.4061 3.78333 30.1269 3.96667 27.179 4.475C18.9478 6.05208 13.1561 11.3917 10.5707 17.4583C5.47279 29.4229 13.402 39.0146 22.2353 39.0062C27.9561 39.0062 32.9686 35.1458 35.9499 30.2521C38.2395 26.4979 40.7582 25.2771 42.5895 25.3417C45.2124 25.4333 46.9415 26.5208 49.5186 29.9146ZM49.9999 24.6208C47.9561 22.6625 45.6561 21.2625 42.6353 21.1583C38.6707 21.0229 34.8728 24.0125 32.3936 28.0812C30.2957 31.5229 27.302 33.9042 24.1832 34.6146C17.1853 36.2083 10.2603 28.8125 14.404 19.0917C21.6145 2.17291 43.2811 9.0375 45.2915 11.5542C46.954 13.6354 49.9145 18.8771 49.9999 24.6208Z" fill="white"/>
</svg>
