<svg width="56" height="19" viewBox="0 0 56 19" fill="none" xmlns="http://www.w3.org/2000/svg">
<path d="M24.4292 18.0783H19.9655L22.7553 0.93355H27.2194L24.4292 18.0783ZM16.2104 0.93355L11.955 12.7258L11.4514 10.1865L11.4519 10.1874L9.94991 2.47724C9.94991 2.47724 9.7683 0.93355 7.8325 0.93355H0.797394L0.714844 1.22385C0.714844 1.22385 2.86619 1.67146 5.38397 3.1835L9.262 18.0788H13.9128L21.0144 0.93355H16.2104ZM51.3195 18.0783H55.4181L51.8446 0.933091H48.2564C46.5994 0.933091 46.1959 2.21078 46.1959 2.21078L39.5386 18.0783H44.1917L45.1222 15.5316H50.7967L51.3195 18.0783ZM46.4077 12.0136L48.7531 5.59763L50.0725 12.0136H46.4077ZM39.8876 5.05647L40.5247 1.37473C40.5247 1.37473 38.5591 0.627197 36.51 0.627197C34.2949 0.627197 29.0346 1.59533 29.0346 6.30298C29.0346 10.7323 35.2084 10.7873 35.2084 13.1138C35.2084 15.4404 29.6707 15.0235 27.8431 13.5564L27.1795 17.406C27.1795 17.406 29.1726 18.3741 32.2178 18.3741C35.2639 18.3741 39.8592 16.7969 39.8592 12.5043C39.8592 8.04662 33.6299 7.63158 33.6299 5.69348C33.6303 3.75493 37.9775 4.00396 39.8876 5.05647Z" fill="#2566AF"/>
</svg>
