<svg width="25" height="25" viewBox="0 0 50 50" fill="none" xmlns="http://www.w3.org/2000/svg">
<path fill-rule="evenodd" clip-rule="evenodd" d="M47.6167 14.4C44.7833 25.3583 34.8771 35.1479 21.4896 40.3229C23.525 42.975 29.9708 47.3687 33.65 48.4312C43.1875 44.9083 50 35.7625 50 25C50 21.2062 49.1292 17.6208 47.6167 14.4ZM15.9 28.3562C16.1479 31.5604 17.1771 34.4417 18.7229 36.8854C32.925 31.7917 42.8563 21.0792 44.7104 9.6625C42.9937 7.45833 40.9229 5.54792 38.5729 4.025C35.5792 18.4208 22.6417 25.5771 15.9 28.3562ZM11.6396 26.1792C9.10625 23.2417 6.21458 21.0042 0.5 20.0125C0.172917 21.625 0 23.2917 0 25C0 38.8083 11.1917 50 25 50C26.0333 50 27.0438 49.9187 28.0438 49.7979C21.2667 47.0417 11.3104 37.9875 11.6396 26.1792ZM15.3479 24.05C17.8667 22.9375 21.0562 21.2583 24.1437 18.8729C19.5917 12.9563 13.2292 8.4625 6.95208 7.72917C4.69167 10.0896 2.89792 12.8917 1.69792 15.9958C8.74792 17.3438 12.3792 20.4792 15.3479 24.05ZM10.4396 4.70625C14.5417 1.75625 19.5604 0 25 0C28.4312 0 31.7 0.69375 34.6771 1.94583C33.7396 7.90625 30.8542 12.575 27.3083 16.0979C22.9229 10.525 16.4688 6.13958 10.4396 4.70625Z" fill="white"/>
</svg>
